<svg width="24" height="24" viewBox="0 0 24 24" fill="none" xmlns="http://www.w3.org/2000/svg">
<path d="M3 5H13C14.1 5 15 5.9 15 7V11C15 12.1 14.1 13 13 13H7L3 16V13C1.9 13 1 12.1 1 11V7C1 5.9 1.9 5 3 5Z" stroke="#181D27" stroke-width="1.5" stroke-linejoin="round"/>
<path d="M15 8H20C21.1 8 22 8.9 22 10V14C22 15.1 21.1 16 20 16H17V19L13 16H10C8.9 16 8 15.1 8 14V13" stroke="#181D27" stroke-width="1.5" stroke-linejoin="round"/>
<path d="M5 10C5.55228 10 6 9.55228 6 9C6 8.44772 5.55228 8 5 8C4.44772 8 4 8.44772 4 9C4 9.55228 4.44772 10 5 10Z" fill="#181D27"/>
<path d="M8 10C8.55228 10 9 9.55228 9 9C9 8.44772 8.55228 8 8 8C7.44772 8 7 8.44772 7 9C7 9.55228 7.44772 10 8 10Z" fill="#181D27"/>
<path d="M11 10C11.5523 10 12 9.55228 12 9C12 8.44772 11.5523 8 11 8C10.4477 8 10 8.44772 10 9C10 9.55228 10.4477 10 11 10Z" fill="#181D27"/>
</svg>
