<svg width="24" height="24" viewBox="0 0 24 24" fill="none" xmlns="http://www.w3.org/2000/svg">
<path d="M12 21C16.9706 21 21 16.9706 21 12C21 7.02944 16.9706 3 12 3C7.02944 3 3 7.02944 3 12C3 16.9706 7.02944 21 12 21Z" stroke="#181D27" stroke-width="1.5"/>
<path d="M12 3C12 3 9 7 9 12C9 17 12 21 12 21" stroke="#181D27" stroke-width="1.5" stroke-linecap="round"/>
<path d="M12 3C12 3 15 7 15 12C15 17 12 21 12 21" stroke="#181D27" stroke-width="1.5" stroke-linecap="round"/>
<path d="M3 12H21" stroke="#181D27" stroke-width="1.5" stroke-linecap="round"/>
<path d="M4 8H20M4 16H20" stroke="#181D27" stroke-width="1.5" stroke-linecap="round"/>
</svg>
