<svg width="24" height="24" viewBox="0 0 24 24" fill="none" xmlns="http://www.w3.org/2000/svg">
<path d="M5 10C5 6.1 8.1 3 12 3C15.9 3 19 6.1 19 10" stroke="#181D27" stroke-width="1.5" stroke-linecap="round"/>
<path d="M7 12C7 10.8954 6.10457 10 5 10C3.89543 10 3 10.8954 3 12V14C3 15.1046 3.89543 16 5 16C6.10457 16 7 15.1046 7 14V12Z" stroke="#181D27" stroke-width="1.5"/>
<path d="M21 12C21 10.8954 20.1046 10 19 10C17.8954 10 17 10.8954 17 12V14C17 15.1046 17.8954 16 19 16C20.1046 16 21 15.1046 21 14V12Z" stroke="#181D27" stroke-width="1.5"/>
<path d="M19 16V18C19 19.1 18.1 20 17 20H14" stroke="#181D27" stroke-width="1.5" stroke-linecap="round"/>
<path d="M15 19H13C12.4477 19 12 19.4477 12 20V21C12 21.5523 12.4477 22 13 22H15C15.5523 22 16 21.5523 16 21V20C16 19.4477 15.5523 19 15 19Z" stroke="#181D27" stroke-width="1.5"/>
</svg>
