<svg width="24" height="24" viewBox="0 0 24 24" fill="none" xmlns="http://www.w3.org/2000/svg">
<path d="M12 5.25C15.0899 5.25 17.4589 6.19991 19.0547 7.14551C19.8534 7.61882 20.4577 8.09074 20.8584 8.44043C20.8812 8.46033 20.9024 8.48093 20.9238 8.5C20.9024 8.51907 20.8812 8.53967 20.8584 8.55957C20.4577 8.90926 19.8534 9.38118 19.0547 9.85449C17.4589 10.8001 15.0899 11.75 12 11.75C8.91008 11.75 6.54107 10.8001 4.94531 9.85449C4.14659 9.38118 3.54229 8.90926 3.1416 8.55957C3.11861 8.5395 3.09684 8.51923 3.0752 8.5C3.09684 8.48077 3.11861 8.4605 3.1416 8.44043C3.54229 8.09074 4.14659 7.61882 4.94531 7.14551C6.54107 6.19991 8.91008 5.25 12 5.25Z" stroke="#181D27" stroke-width="1.5" stroke-linejoin="round"/>
<path d="M12 11C13.3807 11 14.5 9.88071 14.5 8.5C14.5 7.11929 13.3807 6 12 6C10.6193 6 9.5 7.11929 9.5 8.5C9.5 9.88071 10.6193 11 12 11Z" stroke="#181D27" stroke-width="1.5"/>
<path d="M5 15.5H19M5 18.5H14" stroke="#181D27" stroke-width="1.5" stroke-linecap="round"/>
</svg>
