<svg width="24" height="24" viewBox="0 0 24 24" fill="none" xmlns="http://www.w3.org/2000/svg">
<path d="M12 9C13.6569 9 15 7.65685 15 6C15 4.34315 13.6569 3 12 3C10.3431 3 9 4.34315 9 6C9 7.65685 10.3431 9 12 9Z" stroke="#181D27" stroke-width="1.5"/>
<path d="M6 21C6 18 8.7 16 12 16C15.3 16 18 18 18 21" stroke="#181D27" stroke-width="1.5" stroke-linecap="round"/>
<path d="M5 10C6.10457 10 7 9.10457 7 8C7 6.89543 6.10457 6 5 6C3.89543 6 3 6.89543 3 8C3 9.10457 3.89543 10 5 10Z" stroke="#181D27" stroke-width="1.5"/>
<path d="M2 20C2 18 3.3 16.5 5 16.5C6 16.5 6.9 17 7.5 17.8" stroke="#181D27" stroke-width="1.5" stroke-linecap="round"/>
<path d="M19 10C20.1046 10 21 9.10457 21 8C21 6.89543 20.1046 6 19 6C17.8954 6 17 6.89543 17 8C17 9.10457 17.8954 10 19 10Z" stroke="#181D27" stroke-width="1.5"/>
<path d="M22 20C22 18 20.7 16.5 19 16.5C18 16.5 17.1 17 16.5 17.8" stroke="#181D27" stroke-width="1.5" stroke-linecap="round"/>
</svg>
