<svg width="24" height="24" viewBox="0 0 24 24" fill="none" xmlns="http://www.w3.org/2000/svg">
<path d="M5 7C3 8.8 2 10.3 2 12C2 13.7 3 15.2 5 17" stroke="#181D27" stroke-width="1.5" stroke-linecap="round"/>
<path d="M19 7C21 8.8 22 10.3 22 12C22 13.7 21 15.2 19 17" stroke="#181D27" stroke-width="1.5" stroke-linecap="round"/>
<path d="M8.5 10C7.5 10.7 7 11.3 7 12C7 12.7 7.5 13.3 8.5 14" stroke="#181D27" stroke-width="1.5" stroke-linecap="round"/>
<path d="M15.5 10C16.5 10.7 17 11.3 17 12C17 12.7 16.5 13.3 15.5 14" stroke="#181D27" stroke-width="1.5" stroke-linecap="round"/>
<path d="M12 13.5C12.8284 13.5 13.5 12.8284 13.5 12C13.5 11.1716 12.8284 10.5 12 10.5C11.1716 10.5 10.5 11.1716 10.5 12C10.5 12.8284 11.1716 13.5 12 13.5Z" fill="#181D27"/>
<path d="M12 13.5V20" stroke="#181D27" stroke-width="1.5" stroke-linecap="round"/>
</svg>
