<svg width="24" height="24" viewBox="0 0 24 24" fill="none" xmlns="http://www.w3.org/2000/svg">
<path d="M9 10.5C10.933 10.5 12.5 8.933 12.5 7C12.5 5.067 10.933 3.5 9 3.5C7.067 3.5 5.5 5.067 5.5 7C5.5 8.933 7.067 10.5 9 10.5Z" stroke="#181D27" stroke-width="1.5"/>
<path d="M2 20C2 16.7 5.1 14 9 14" stroke="#181D27" stroke-width="1.5" stroke-linecap="round"/>
<path d="M20.5 14H14.5C13.6716 14 13 14.6716 13 15.5V19.5C13 20.3284 13.6716 21 14.5 21H20.5C21.3284 21 22 20.3284 22 19.5V15.5C22 14.6716 21.3284 14 20.5 14Z" stroke="#181D27" stroke-width="1.5"/>
<path d="M15 14V12C15 10.9 15.9 10 17 10H17.5C18.6 10 19.5 10.9 19.5 12V14" stroke="#181D27" stroke-width="1.5" stroke-linecap="round"/>
<path d="M17.5 18.5C18.0523 18.5 18.5 18.0523 18.5 17.5C18.5 16.9477 18.0523 16.5 17.5 16.5C16.9477 16.5 16.5 16.9477 16.5 17.5C16.5 18.0523 16.9477 18.5 17.5 18.5Z" fill="#181D27"/>
</svg>
