<svg width="24" height="24" viewBox="0 0 24 24" fill="none" xmlns="http://www.w3.org/2000/svg">
<path d="M20 4H4C2.89543 4 2 4.89543 2 6V16C2 17.1046 2.89543 18 4 18H20C21.1046 18 22 17.1046 22 16V6C22 4.89543 21.1046 4 20 4Z" stroke="#181D27" stroke-width="1.5"/>
<path d="M11 10L14 11.5L11 13V10Z" fill="#181D27" stroke="#181D27" stroke-width="1.5" stroke-linejoin="round"/>
<path d="M18 8.5C18.8284 8.5 19.5 7.82843 19.5 7C19.5 6.17157 18.8284 5.5 18 5.5C17.1716 5.5 16.5 6.17157 16.5 7C16.5 7.82843 17.1716 8.5 18 8.5Z" fill="#181D27"/>
<path d="M8 21H16M12 18V21" stroke="#181D27" stroke-width="1.5" stroke-linecap="round"/>
</svg>
