<svg width="24" height="24" viewBox="0 0 24 24" fill="none" xmlns="http://www.w3.org/2000/svg">
<path d="M10.1418 15.15C10.0614 14.8385 9.89908 14.5543 9.67163 14.3268C9.44419 14.0994 9.15996 13.9371 8.8485 13.8567L3.32711 12.4329C3.23292 12.4062 3.15001 12.3494 3.09098 12.2713C3.03193 12.1932 3 12.098 3 12C3 11.9021 3.03193 11.8068 3.09098 11.7287C3.15001 11.6506 3.23292 11.5939 3.32711 11.5671L8.8485 10.1425C9.15984 10.0622 9.44401 9.89999 9.67144 9.67271C9.89888 9.44544 10.0613 9.16138 10.1418 8.85009L11.5655 3.32871C11.592 3.23414 11.6487 3.15083 11.7269 3.09147C11.8052 3.03213 11.9007 3 11.9989 3C12.097 3 12.1926 3.03213 12.2708 3.09147C12.3491 3.15083 12.4058 3.23414 12.4323 3.32871L13.8551 8.85009C13.9355 9.16155 14.0978 9.44578 14.3252 9.67322C14.5527 9.90068 14.8369 10.063 15.1484 10.1434L20.6698 11.5662C20.7647 11.5924 20.8484 11.649 20.9081 11.7274C20.9678 11.8058 21 11.9015 21 12C21 12.0985 20.9678 12.1943 20.9081 12.2726C20.8484 12.351 20.7647 12.4076 20.6698 12.4338L15.1484 13.8567C14.8369 13.9371 14.5527 14.0994 14.3252 14.3268C14.0978 14.5543 13.9355 14.8385 13.8551 15.15L12.4313 20.6714C12.4048 20.7659 12.3481 20.8492 12.2699 20.9085C12.1917 20.9679 12.0962 21 11.998 21C11.8998 21 11.8043 20.9679 11.726 20.9085C11.6478 20.8492 11.5911 20.7659 11.5646 20.6714L10.1418 15.15Z" stroke="#181D27" stroke-width="1.5" stroke-linecap="round" stroke-linejoin="round"/>
<path d="M19.1982 3.90021V7.50012" stroke="#181D27" stroke-width="1.5" stroke-linecap="round" stroke-linejoin="round"/>
<path d="M20.9982 5.70007H17.3983" stroke="#181D27" stroke-width="1.5" stroke-linecap="round" stroke-linejoin="round"/>
<path d="M4.79852 16.5V18.2999" stroke="#181D27" stroke-width="1.5" stroke-linecap="round" stroke-linejoin="round"/>
<path d="M5.69852 17.3998H3.89856" stroke="#181D27" stroke-width="1.5" stroke-linecap="round" stroke-linejoin="round"/>
</svg>
