<svg width="24" height="24" viewBox="0 0 24 24" fill="none" xmlns="http://www.w3.org/2000/svg">
<path d="M17 7H7C5.34315 7 4 8.34315 4 10V16C4 17.6569 5.34315 19 7 19H17C18.6569 19 20 17.6569 20 16V10C20 8.34315 18.6569 7 17 7Z" stroke="#181D27" stroke-width="1.5"/>
<path d="M12 7V4M12 4H10M12 4H14" stroke="#181D27" stroke-width="1.5" stroke-linecap="round"/>
<path d="M9 13.5C9.82843 13.5 10.5 12.8284 10.5 12C10.5 11.1716 9.82843 10.5 9 10.5C8.17157 10.5 7.5 11.1716 7.5 12C7.5 12.8284 8.17157 13.5 9 13.5Z" fill="#181D27"/>
<path d="M15 13.5C15.8284 13.5 16.5 12.8284 16.5 12C16.5 11.1716 15.8284 10.5 15 10.5C14.1716 10.5 13.5 11.1716 13.5 12C13.5 12.8284 14.1716 13.5 15 13.5Z" fill="#181D27"/>
<path d="M9 16H15" stroke="#181D27" stroke-width="1.5" stroke-linecap="round"/>
<path d="M2 12H4M20 12H22" stroke="#181D27" stroke-width="1.5" stroke-linecap="round"/>
</svg>
