<svg width="24" height="24" viewBox="0 0 24 24" fill="none" xmlns="http://www.w3.org/2000/svg">
<path d="M3 3H5L5.4 5M5.4 5L7 14H19L21 5H5.4Z" stroke="#181D27" stroke-width="1.5" stroke-linecap="round" stroke-linejoin="round"/>
<path d="M9 19.5C9.82843 19.5 10.5 18.8284 10.5 18C10.5 17.1716 9.82843 16.5 9 16.5C8.17157 16.5 7.5 17.1716 7.5 18C7.5 18.8284 8.17157 19.5 9 19.5Z" stroke="#181D27" stroke-width="1.5"/>
<path d="M17 19.5C17.8284 19.5 18.5 18.8284 18.5 18C18.5 17.1716 17.8284 16.5 17 16.5C16.1716 16.5 15.5 17.1716 15.5 18C15.5 18.8284 16.1716 19.5 17 19.5Z" stroke="#181D27" stroke-width="1.5"/>
</svg>
