<svg width="24" height="24" viewBox="0 0 24 24" fill="none" xmlns="http://www.w3.org/2000/svg">
<path d="M19 5H5C3.34315 5 2 6.34315 2 8V16C2 17.6569 3.34315 19 5 19H19C20.6569 19 22 17.6569 22 16V8C22 6.34315 20.6569 5 19 5Z" stroke="#181D27" stroke-width="1.5"/>
<path d="M2 10H22" stroke="#181D27" stroke-width="1.5"/>
<path d="M6 15H10" stroke="#181D27" stroke-width="1.5" stroke-linecap="round"/>
<path d="M17 16.5C17.8284 16.5 18.5 15.8284 18.5 15C18.5 14.1716 17.8284 13.5 17 13.5C16.1716 13.5 15.5 14.1716 15.5 15C15.5 15.8284 16.1716 16.5 17 16.5Z" stroke="#181D27" stroke-width="1.5"/>
</svg>
