<svg width="24" height="24" viewBox="0 0 24 24" fill="none" xmlns="http://www.w3.org/2000/svg">
<path d="M8 21H16M12 18C12 19.5621 12 19.4379 12 21" stroke="#181D27" stroke-width="1.5" stroke-linecap="round"/>
<path d="M5 3H19V11C19 14.9 15.9 18 12 18C8.1 18 5 14.9 5 11V3Z" stroke="#181D27" stroke-width="1.5" stroke-linejoin="round"/>
<path d="M5 7H2V11C2 12.7 3.3 14 5 14" stroke="#181D27" stroke-width="1.5" stroke-linecap="round"/>
<path d="M19 7H22V11C22 12.7 20.7 14 19 14" stroke="#181D27" stroke-width="1.5" stroke-linecap="round"/>
<path d="M12 7L12.8 9.4H15.3L13.3 10.9L14 13.3L12 11.8L9.99995 13.3L10.7 10.9L8.69995 9.4H11.2L12 7Z" fill="#181D27"/>
</svg>
