<svg width="24" height="24" viewBox="0 0 24 24" fill="none" xmlns="http://www.w3.org/2000/svg">
<path d="M4 4C4 2.9 4.9 2 6 2H18C19.1 2 20 2.9 20 4V20C20 21.1 19.1 22 18 22H6C4.9 22 4 21.1 4 20V4Z" stroke="#181D27" stroke-width="1.5"/>
<path d="M9 7H15M9 11H15M9 15H12" stroke="#181D27" stroke-width="1.5" stroke-linecap="round"/>
<path d="M4 18H20" stroke="#181D27" stroke-width="1.5"/>
<path d="M12 21C12.5523 21 13 20.5523 13 20C13 19.4477 12.5523 19 12 19C11.4477 19 11 19.4477 11 20C11 20.5523 11.4477 21 12 21Z" fill="#181D27"/>
</svg>
