<svg width="24" height="24" viewBox="0 0 24 24" fill="none" xmlns="http://www.w3.org/2000/svg">
<path d="M6 8H4C3.4 8 3 8.4 3 9V15C3 15.6 3.4 16 4 16H6" stroke="#181D27" stroke-width="1.5" stroke-linecap="round"/>
<path d="M18 8H20C20.6 8 21 8.4 21 9V15C21 15.6 20.6 16 20 16H18" stroke="#181D27" stroke-width="1.5" stroke-linecap="round"/>
<path d="M9 7.5C9 6.67157 8.32843 6 7.5 6C6.67157 6 6 6.67157 6 7.5V16.5C6 17.3284 6.67157 18 7.5 18C8.32843 18 9 17.3284 9 16.5V7.5Z" stroke="#181D27" stroke-width="1.5"/>
<path d="M18 7.5C18 6.67157 17.3284 6 16.5 6C15.6716 6 15 6.67157 15 7.5V16.5C15 17.3284 15.6716 18 16.5 18C17.3284 18 18 17.3284 18 16.5V7.5Z" stroke="#181D27" stroke-width="1.5"/>
<path d="M9 12H15" stroke="#181D27" stroke-width="1.5" stroke-linecap="round"/>
</svg>
