<svg width="24" height="24" viewBox="0 0 24 24" fill="none" xmlns="http://www.w3.org/2000/svg">
<path d="M4 14V12C4 7.6 7.6 4 12 4C16.4 4 20 7.6 20 12V14" stroke="#181D27" stroke-width="1.5" stroke-linecap="round"/>
<path d="M6 16C6 14.8954 5.10457 14 4 14C2.89543 14 2 14.8954 2 16V18C2 19.1046 2.89543 20 4 20C5.10457 20 6 19.1046 6 18V16Z" stroke="#181D27" stroke-width="1.5"/>
<path d="M22 16C22 14.8954 21.1046 14 20 14C18.8954 14 18 14.8954 18 16V18C18 19.1046 18.8954 20 20 20C21.1046 20 22 19.1046 22 18V16Z" stroke="#181D27" stroke-width="1.5"/>
</svg>
