<svg width="24" height="24" viewBox="0 0 24 24" fill="none" xmlns="http://www.w3.org/2000/svg">
<path d="M4.5 3.75122H9.5C9.91421 3.75122 10.25 4.08701 10.25 4.50122V9.50122C10.25 9.91543 9.91421 10.2512 9.5 10.2512H4.5C4.08579 10.2512 3.75 9.91543 3.75 9.50122V4.50122C3.75 4.08701 4.08579 3.75122 4.5 3.75122Z" stroke="#181D27" stroke-width="1.5"/>
<path d="M14.5 3.75122H19.5C19.9142 3.75122 20.25 4.08701 20.25 4.50122V9.50122C20.25 9.91543 19.9142 10.2512 19.5 10.2512H14.5C14.0858 10.2512 13.75 9.91543 13.75 9.50122V4.50122C13.75 4.08701 14.0858 3.75122 14.5 3.75122Z" stroke="#181D27" stroke-width="1.5"/>
<path d="M4.5 13.7512H9.5C9.91421 13.7512 10.25 14.087 10.25 14.5012V19.5012C10.25 19.9154 9.91421 20.2512 9.5 20.2512H4.5C4.08579 20.2512 3.75 19.9154 3.75 19.5012V14.5012C3.75 14.087 4.08579 13.7512 4.5 13.7512Z" stroke="#181D27" stroke-width="1.5"/>
<path d="M14.5 13.7512H19.5C19.9142 13.7512 20.25 14.087 20.25 14.5012V19.5012C20.25 19.9154 19.9142 20.2512 19.5 20.2512H14.5C14.0858 20.2512 13.75 19.9154 13.75 19.5012V14.5012C13.75 14.087 14.0858 13.7512 14.5 13.7512Z" stroke="#181D27" stroke-width="1.5"/>
</svg>
