<svg width="24" height="24" viewBox="0 0 24 24" fill="none" xmlns="http://www.w3.org/2000/svg">
<path d="M20 2H4C2.9 2 2 2.9 2 4V16C2 17.1 2.9 18 4 18H8L12 22L16 18H20C21.1 18 22 17.1 22 16V4C22 2.9 21.1 2 20 2Z" stroke="#181D27" stroke-width="1.5" stroke-linejoin="round"/>
<path d="M9.5 9C9.5 7.6 10.6 6.5 12 6.5C13.4 6.5 14.5 7.6 14.5 9C14.5 10.1 13.8 11 12.8 11.4C12.3 11.6 12 12.1 12 12.6V13" stroke="#181D27" stroke-width="1.5" stroke-linecap="round"/>
<path d="M12 16.25C12.4142 16.25 12.75 15.9142 12.75 15.5C12.75 15.0858 12.4142 14.75 12 14.75C11.5858 14.75 11.25 15.0858 11.25 15.5C11.25 15.9142 11.5858 16.25 12 16.25Z" fill="#181D27"/>
</svg>
