<svg width="24" height="24" viewBox="0 0 24 24" fill="none" xmlns="http://www.w3.org/2000/svg">
<path d="M18 3H6C4.34315 3 3 4.34315 3 6V18C3 19.6569 4.34315 21 6 21H18C19.6569 21 21 19.6569 21 18V6C21 4.34315 19.6569 3 18 3Z" stroke="#181D27" stroke-width="1.5"/>
<path d="M9 9C9 7.3 10.3 6 12 6C13.7 6 15 7.3 15 9C15 10.4 14.1 11.6 12.9 12C12.4 12.2 12 12.6 12 13.1V14" stroke="#181D27" stroke-width="1.5" stroke-linecap="round"/>
<path d="M12 18C12.5523 18 13 17.5523 13 17C13 16.4477 12.5523 16 12 16C11.4477 16 11 16.4477 11 17C11 17.5523 11.4477 18 12 18Z" fill="#181D27"/>
</svg>
