<svg width="24" height="24" viewBox="0 0 24 24" fill="none" xmlns="http://www.w3.org/2000/svg">
<path d="M18 5H6C4.34315 5 3 6.34315 3 8V19C3 20.6569 4.34315 22 6 22H18C19.6569 22 21 20.6569 21 19V8C21 6.34315 19.6569 5 18 5Z" stroke="#181D27" stroke-width="1.5"/>
<path d="M3 10H21" stroke="#181D27" stroke-width="1.5" stroke-linecap="round"/>
<path d="M8 3V7M16 3V7" stroke="#181D27" stroke-width="1.5" stroke-linecap="round"/>
<path d="M8 16C8.55228 16 9 15.5523 9 15C9 14.4477 8.55228 14 8 14C7.44772 14 7 14.4477 7 15C7 15.5523 7.44772 16 8 16Z" fill="#181D27"/>
<path d="M12 16C12.5523 16 13 15.5523 13 15C13 14.4477 12.5523 14 12 14C11.4477 14 11 14.4477 11 15C11 15.5523 11.4477 16 12 16Z" fill="#181D27"/>
<path d="M16 16C16.5523 16 17 15.5523 17 15C17 14.4477 16.5523 14 16 14C15.4477 14 15 14.4477 15 15C15 15.5523 15.4477 16 16 16Z" fill="#181D27"/>
</svg>
