<svg width="24" height="24" viewBox="0 0 24 24" fill="none" xmlns="http://www.w3.org/2000/svg">
<path d="M19 4H5C3.89543 4 3 4.89543 3 6V20C3 21.1046 3.89543 22 5 22H19C20.1046 22 21 21.1046 21 20V6C21 4.89543 20.1046 4 19 4Z" stroke="#181D27" stroke-width="1.5"/>
<path d="M16 2V6M8 2V6M3 9H21" stroke="#181D27" stroke-width="1.5" stroke-linecap="round"/>
<path d="M12 13V16" stroke="#181D27" stroke-width="1.5" stroke-linecap="round"/>
<path d="M12 20C12.5523 20 13 19.5523 13 19C13 18.4477 12.5523 18 12 18C11.4477 18 11 18.4477 11 19C11 19.5523 11.4477 20 12 20Z" fill="#181D27"/>
</svg>
