<svg width="24" height="24" viewBox="0 0 24 24" fill="none" xmlns="http://www.w3.org/2000/svg">
<path d="M9 3H15L17 6H21C21.6 6 22 6.4 22 7V19C22 19.6 21.6 20 21 20H7" stroke="#181D27" stroke-width="1.5" stroke-linecap="round" stroke-linejoin="round"/>
<path d="M3 6C2.4 6 2 6.4 2 7V19C2 19.6 2.4 20 3 20" stroke="#181D27" stroke-width="1.5" stroke-linecap="round"/>
<path d="M9.5 9.5C8.6 10.3 8 11.4 8 12.7C8 15 9.8 17 12 17C13.3 17 14.4 16.4 15.2 15.5" stroke="#181D27" stroke-width="1.5" stroke-linecap="round"/>
<path d="M2 2L22 22" stroke="#181D27" stroke-width="1.5" stroke-linecap="round"/>
</svg>
