<svg width="24" height="24" viewBox="0 0 24 24" fill="none" xmlns="http://www.w3.org/2000/svg">
<path d="M19 4H5C3.89543 4 3 4.89543 3 6V18C3 19.1046 3.89543 20 5 20H19C20.1046 20 21 19.1046 21 18V6C21 4.89543 20.1046 4 19 4Z" stroke="#181D27" stroke-width="1.5"/>
<path d="M7.5 10C8.32843 10 9 9.32843 9 8.5C9 7.67157 8.32843 7 7.5 7C6.67157 7 6 7.67157 6 8.5C6 9.32843 6.67157 10 7.5 10Z" stroke="#181D27" stroke-width="1.5"/>
<path d="M3 18L7 13L10 15L14 10L20 19" stroke="#181D27" stroke-width="1.5" stroke-linecap="round" stroke-linejoin="round"/>
</svg>
