<svg width="24" height="24" viewBox="0 0 24 24" fill="none" xmlns="http://www.w3.org/2000/svg">
<path d="M3 3L21 21M10.6 10.6C10.2 11 10 11.5 10 12C10 13.1 10.9 14 12 14C12.5 14 13 13.8 13.4 13.4" stroke="#181D27" stroke-width="1.5" stroke-linecap="round"/>
<path d="M6.7 6.69995C4.4 8.09995 3 9.99995 3 12C3 12 6 19 12 19C13.9 19 15.5 18.4 16.9 17.4" stroke="#181D27" stroke-width="1.5" stroke-linecap="round"/>
<path d="M9.5 4.9C10.3 4.6 11.1 4.5 12 4.5C18 4.5 21 11.5 21 11.5C21 11.5 20.2 13.3 18.8 14.8" stroke="#181D27" stroke-width="1.5" stroke-linecap="round"/>
</svg>
