<svg width="24" height="24" viewBox="0 0 24 24" fill="none" xmlns="http://www.w3.org/2000/svg">
<path d="M18 11H6C4.89543 11 4 11.8954 4 13V20C4 21.1046 4.89543 22 6 22H18C19.1046 22 20 21.1046 20 20V13C20 11.8954 19.1046 11 18 11Z" stroke="#181D27" stroke-width="1.5"/>
<path d="M8 11V7C8 4.8 9.8 3 12 3C14.2 3 16 4.8 16 7V11" stroke="#181D27" stroke-width="1.5" stroke-linecap="round"/>
<path d="M12 17.5C12.8284 17.5 13.5 16.8284 13.5 16C13.5 15.1716 12.8284 14.5 12 14.5C11.1716 14.5 10.5 15.1716 10.5 16C10.5 16.8284 11.1716 17.5 12 17.5Z" stroke="#181D27" stroke-width="1.5"/>
</svg>
