<svg width="24" height="24" viewBox="0 0 24 24" fill="none" xmlns="http://www.w3.org/2000/svg">
<path d="M12 21C16.9706 21 21 16.9706 21 12C21 7.02944 16.9706 3 12 3C7.02944 3 3 7.02944 3 12C3 16.9706 7.02944 21 12 21Z" stroke="#181D27" stroke-width="1.5"/>
<path d="M5.99988 18.5C6.13858 18.0839 5.80626 18.6967 6 18.3383C7.20312 16.1128 9.4161 15 12 15C14.5839 15 16.7969 16.1128 18 18.3383M18 18.3383C18.1937 18.6967 17.8613 17.9222 18 18.3383Z" stroke="#181D27" stroke-width="1.5" stroke-linecap="round"/>
<path d="M12 12C13.6569 12 15 10.6569 15 9C15 7.34315 13.6569 6 12 6C10.3431 6 9 7.34315 9 9C9 10.6569 10.3431 12 12 12Z" stroke="#181D27" stroke-width="1.5"/>
</svg>
