<svg preserveAspectRatio="none" width="100%" height="100%" overflow="visible" style="display: block;" viewBox="0 0 197.923 200.003" fill="none" xmlns="http://www.w3.org/2000/svg">
<g id="logo-cycle-light">
<path id="Union" d="M76.3333 61.3413C85.0221 56.678 95.0211 55.0498 104.741 56.7153L105.711 56.893C115.734 58.8412 124.764 64.1917 131.284 72.0229L131.907 72.7885C138.263 80.7792 141.654 90.7134 141.526 100.903L141.502 101.889C141.134 112.422 137.021 122.479 129.901 130.249C123.003 137.777 113.722 142.682 103.638 144.149L102.659 144.28C92.1989 145.564 81.6229 143.074 72.8343 137.257C68.3971 134.32 64.5621 130.631 61.4788 126.396C56.4436 119.479 61.3833 110.633 69.6077 108.275L75.4779 106.592C79.8379 105.342 84.3276 107.784 88.2777 110.331L89.9359 111.418C92.5725 113.164 95.7459 113.91 98.8841 113.525L99.4691 113.44C102.381 112.95 105.053 111.501 107.056 109.316L107.446 108.871C109.342 106.607 110.433 103.77 110.536 100.808L110.544 100.216C110.516 97.2636 109.503 94.3983 107.658 92.0786C105.689 89.6041 102.903 87.9124 99.7991 87.309C96.8893 86.7435 93.8797 87.169 91.2474 88.5073L90.7269 88.7866C86.2152 91.3392 80.8383 94.3648 75.9671 92.5922L70.2279 90.5044C62.1878 87.5778 57.8774 78.4091 63.3831 71.8598C66.7544 67.8498 70.8378 64.4381 75.4691 61.8178L76.3333 61.3413ZM104.375 63.7641C95.6658 62.0713 86.6376 63.5417 78.9154 67.9106C75.0166 70.1165 71.5787 72.9878 68.7405 76.3637C67.8268 77.4506 67.6833 78.5921 68.222 79.935C68.8362 81.466 70.3712 83.1065 72.6234 83.9262L78.3607 86.0151C78.7153 86.144 79.5059 86.2689 81.2327 85.6831C83.0184 85.0772 84.9181 84.0308 87.2796 82.6948C91.4822 80.3171 96.3952 79.5166 101.135 80.438C105.875 81.3593 110.13 83.9415 113.136 87.7202C116.142 91.499 117.701 96.2267 117.533 101.052C117.364 105.878 115.479 110.485 112.217 114.045C108.955 117.605 104.529 119.885 99.7366 120.473C94.9442 121.061 90.099 119.92 86.0726 117.255C83.81 115.758 81.9874 114.581 80.2484 113.852C78.5672 113.147 77.7704 113.217 77.4075 113.321L71.5374 115.004C69.2336 115.665 67.5889 117.195 66.8695 118.679C66.2386 119.981 66.3026 121.129 67.138 122.277C69.7337 125.842 72.9624 128.947 76.6976 131.419C84.0964 136.316 93.0005 138.414 101.807 137.332C110.614 136.251 118.745 132.062 124.74 125.52C130.734 118.978 134.197 110.512 134.507 101.645C134.817 92.7776 131.952 84.0899 126.429 77.146C120.906 70.2022 113.085 65.4571 104.375 63.7641Z" fill="var(--fill-0, #181D27)"/>
<circle id="Ellipse 290" cx="97.9224" cy="100.002" r="45.0002" fill="var(--fill-0, #181D27)"/>
<path id="Union_2" d="M164.403 50.307C171.923 44.6856 182.726 46.1805 186.994 54.5434C193.935 68.144 197.704 83.2246 197.914 98.6428C198.123 114.061 194.765 129.239 188.196 143.024C184.157 151.499 173.398 153.287 165.728 147.872L105.037 113.497C95.6022 106.835 95.4133 92.907 104.664 85.9922L164.403 50.307Z" fill="var(--fill-0, #F57B7E)"/>
<path id="Union_3" d="M146.865 173.902C149.324 177.375 148.651 182.198 145.111 184.559C130.392 194.374 113.348 199.743 95.8467 199.994C78.3509 200.245 61.1822 195.371 46.2198 185.988C42.6122 183.726 41.8084 178.919 44.1749 175.379L51.6543 164.189C54.1995 160.382 59.399 159.532 63.3902 161.778C73.214 167.307 84.2413 170.157 95.461 169.996C106.682 169.835 117.634 166.669 127.313 160.859C131.242 158.501 136.467 159.21 139.114 162.951L146.865 173.902ZM38.2177 54.9487C42.0252 57.4939 42.8784 62.6934 40.6047 66.669C34.6117 77.1477 31.5193 88.9461 31.6914 100.953C31.8637 112.961 35.2943 124.677 41.5871 134.999C43.9727 138.912 43.26 144.136 39.5193 146.784L27.2191 155.49C23.7456 157.948 18.9242 157.275 16.548 153.744C6.03116 138.118 0.277026 119.986 0.00978876 101.361C-0.257319 82.7418 4.97105 64.473 15.0297 48.5858C17.3076 44.9878 22.1129 44.1831 25.6532 46.5496L38.2177 54.9487ZM93.4531 0.00932568C110.949 -0.241677 128.118 4.63228 143.081 14.0156C146.689 16.278 147.492 21.0851 145.126 24.6253L137.647 35.8138C135.101 39.6213 129.902 40.4715 125.911 38.2252C116.087 32.6959 105.059 29.8464 93.8389 30.0074C82.618 30.1684 71.6667 33.3342 61.9879 39.1445C58.0587 41.5032 52.8339 40.7936 50.1864 37.0528L42.4355 26.1014C39.9771 22.6279 40.6496 17.8048 44.1901 15.4439C58.909 5.62864 75.9515 0.260448 93.4531 0.00932568Z" fill="var(--fill-0, #181D27)"/>
</g>
</svg>
