<svg preserveAspectRatio="none" width="100%" height="100%" overflow="visible" style="display: block;" viewBox="0 0 197.923 200.003" fill="none" xmlns="http://www.w3.org/2000/svg">
<g id="logo-cycle-dark">
<path id="Union" d="M76.3333 61.3407C85.0221 56.6775 95.0211 55.0493 104.741 56.7148L105.711 56.8925C115.734 58.8407 124.764 64.1911 131.283 72.0224L131.907 72.788C138.263 80.7787 141.654 90.7129 141.526 100.902L141.502 101.889C141.134 112.422 137.021 122.478 129.901 130.249C123.003 137.777 113.722 142.681 103.638 144.148L102.659 144.279C92.1988 145.564 81.6228 143.074 72.8343 137.257C68.3971 134.32 64.5621 130.631 61.4788 126.395C56.4436 119.478 61.3833 110.633 69.6077 108.274L75.4778 106.592C79.8378 105.342 84.3275 107.783 88.2776 110.33L89.9358 111.418C92.5724 113.163 95.7458 113.91 98.8841 113.524L99.469 113.439C102.381 112.949 105.053 111.501 107.056 109.315L107.446 108.87C109.342 106.606 110.433 103.77 110.536 100.808L110.544 100.216C110.516 97.263 109.503 94.3978 107.658 92.078C105.689 89.6036 102.903 87.9119 99.7991 87.3085C96.8893 86.7429 93.8797 87.1684 91.2474 88.5067L90.7269 88.786C86.2151 91.3387 80.8383 94.3642 75.9671 92.5917L70.2278 90.5038C62.1878 87.5772 57.8773 78.4086 63.3831 71.8593C66.7543 67.8492 70.8378 64.4375 75.469 61.8173L76.3333 61.3407ZM104.375 63.7636C95.6658 62.0707 86.6376 63.5411 78.9153 67.9101C75.0166 70.1159 71.5787 72.9872 68.7405 76.3632C67.8268 77.4501 67.6833 78.5915 68.222 79.9345C68.8362 81.4655 70.3712 83.106 72.6233 83.9257L78.3606 86.0146C78.7153 86.1435 79.5059 86.2684 81.2327 85.6825C83.0183 85.0766 84.9181 84.0303 87.2796 82.6942C91.4822 80.3165 96.3952 79.5161 101.135 80.4374C105.875 81.3588 110.13 83.941 113.136 87.7196C116.142 91.4985 117.701 96.2261 117.533 101.052C117.364 105.877 115.479 110.485 112.217 114.045C108.955 117.605 104.529 119.884 99.7366 120.473C94.9442 121.061 90.099 119.92 86.0726 117.255C83.8099 115.757 81.9874 114.58 80.2483 113.851C78.5672 113.147 77.7704 113.216 77.4075 113.32L71.5374 115.004C69.2336 115.665 67.5888 117.194 66.8694 118.679C66.2385 119.981 66.3026 121.128 67.138 122.276C69.7337 125.842 72.9624 128.947 76.6976 131.419C84.0964 136.316 93.0005 138.413 101.807 137.332C110.614 136.251 118.745 132.061 124.74 125.519C130.734 118.978 134.197 110.512 134.507 101.644C134.817 92.777 131.952 84.0893 126.429 77.1454C120.906 70.2016 113.085 65.4566 104.375 63.7636Z" fill="var(--fill-0, white)"/>
<circle id="Ellipse 290" cx="97.9224" cy="100.002" r="45.0002" fill="var(--fill-0, white)"/>
<path id="Union_2" d="M164.402 50.3064C171.923 44.6851 182.726 46.18 186.994 54.5428C193.935 68.1435 197.704 83.2241 197.914 98.6423C198.123 114.061 194.765 129.239 188.196 143.023C184.157 151.499 173.398 153.287 165.728 147.872L105.037 113.496C95.6021 106.835 95.4133 92.9065 104.664 85.9917L164.402 50.3064Z" fill="var(--fill-0, #ED6A6D)"/>
<path id="Union_3" d="M146.865 173.902C149.324 177.375 148.651 182.198 145.111 184.559C130.392 194.374 113.349 199.743 95.8467 199.994C78.3509 200.245 61.1822 195.371 46.2199 185.987C42.6122 183.725 41.8085 178.918 44.175 175.378L51.6543 164.189C54.1995 160.382 59.3989 159.532 63.39 161.778C73.2139 167.307 84.2414 170.157 95.461 169.996C106.682 169.835 117.634 166.669 127.313 160.859C131.242 158.5 136.467 159.209 139.114 162.95L146.865 173.902ZM38.2177 54.9487C42.0252 57.4939 42.8785 62.6934 40.6047 66.669C34.6117 77.1477 31.5192 88.946 31.6914 100.953C31.8637 112.961 35.2944 124.676 41.5871 134.998C43.9727 138.911 43.26 144.135 39.5194 146.783L27.2191 155.489C23.7456 157.947 18.9242 157.274 16.548 153.743C6.03113 138.117 0.276975 119.985 0.00978461 101.36C-0.257283 82.7409 4.97109 64.4728 15.0296 48.5858C17.3076 44.9878 22.1129 44.1831 25.6532 46.5496L38.2177 54.9487ZM93.4531 0.00932568C110.949 -0.241678 128.118 4.63155 143.081 14.0147C146.689 16.2771 147.492 21.0841 145.126 24.6243L137.647 35.8136C135.101 39.6212 129.902 40.4714 125.911 38.225C116.087 32.6955 105.059 29.8454 93.8389 30.0064C82.618 30.1674 71.6666 33.3333 61.9877 39.1436C58.0586 41.5023 52.8339 40.7927 50.1864 37.0521L42.4357 26.1015C39.9772 22.6279 40.6497 17.8048 44.1902 15.4438C58.9091 5.62856 75.9515 0.260447 93.4531 0.00932568Z" fill="var(--fill-0, white)"/>
</g>
</svg>
