<svg width="24" height="24" viewBox="0 0 24 24" fill="none" xmlns="http://www.w3.org/2000/svg">
<path d="M9.54492 3.98828C9.45868 5.20287 9.59475 6.40003 9.95508 7.57422C10.4266 9.11064 11.2424 10.4573 12.3926 11.6074C13.5427 12.7576 14.8894 13.5734 16.4258 14.0449C17.6019 14.4058 18.8009 14.5402 20.0176 14.4531C19.5521 15.9862 18.6885 17.2733 17.416 18.3301C15.8711 19.6129 14.1054 20.25 12.0898 20.25C10.928 20.25 9.84914 20.0296 8.8457 19.5928C7.82585 19.1488 6.94469 18.5521 6.19629 17.8037C5.44789 17.0553 4.85124 16.1742 4.40723 15.1543C3.97039 14.1509 3.75002 13.072 3.75 11.9102C3.75 9.89477 4.38625 8.13348 5.66797 6.59668C6.72421 5.33032 8.01158 4.46321 9.54492 3.98828Z" stroke="#181D27" stroke-width="1.5"/>
</svg>
