<svg width="24" height="24" viewBox="0 0 24 24" fill="none" xmlns="http://www.w3.org/2000/svg">
<path d="M5 21H19C20.1 21 21 20.1 21 19V8L16 3H5C3.9 3 3 3.9 3 5V19C3 20.1 3.9 21 5 21Z" stroke="#181D27" stroke-width="1.5" stroke-linejoin="round"/>
<path d="M9 3V8H15V3" stroke="#181D27" stroke-width="1.5" stroke-linecap="round" stroke-linejoin="round"/>
<path d="M16 13H8C7.44772 13 7 13.4477 7 14V20C7 20.5523 7.44772 21 8 21H16C16.5523 21 17 20.5523 17 20V14C17 13.4477 16.5523 13 16 13Z" stroke="#181D27" stroke-width="1.5"/>
</svg>
